<svg xmlns="http://www.w3.org/2000/svg" viewBox="0 0 100 100" width="100" height="100">
  <defs>
    <linearGradient id="flame" x1="0" y1="0" x2="0" y2="1">
      <stop offset="0" stop-color="#ffb347"/>
      <stop offset=".55" stop-color="#ff6a3d"/>
      <stop offset="1" stop-color="#e5522a"/>
    </linearGradient>
    <linearGradient id="core" x1="0" y1="0" x2="0" y2="1">
      <stop offset="0" stop-color="#ffe3b3"/>
      <stop offset="1" stop-color="#ff8a5c"/>
    </linearGradient>
  </defs>
  <path fill="url(#flame)" d="M50 4
    C 53 18, 68 26, 73 44
    C 77 60, 70 80, 50 88
    C 30 80, 23 60, 27 44
    C 30 33, 38 28, 42 16
    C 44 24, 49 27, 50 20
    C 51 14, 50 9, 50 4 Z"/>
  <path fill="url(#core)" d="M50 40
    C 55 49, 61 53, 60 63
    C 59 72, 55 77, 50 79
    C 45 77, 41 72, 40 63
    C 39 53, 45 49, 50 40 Z"/>
</svg>
